<svg width="938" height="564" viewBox="0 0 938 564" fill="none" xmlns="http://www.w3.org/2000/svg">
    <g filter="url(#filter0_dddddd_901_2)">
        <path fill-rule="evenodd" clip-rule="evenodd"
            d="M453 -0.00634766C346.961 -0.00634766 261 85.955 261 191.994C261 298.032 346.961 383.994 453 383.994C559.039 383.994 645 298.032 645 191.994C645 85.955 559.039 -0.00634766 453 -0.00634766ZM453 105.994C405.504 105.994 367 144.497 367 191.994C367 239.49 405.504 277.994 453 277.994C500.496 277.994 539 239.49 539 191.994C539 144.497 500.496 105.994 453 105.994Z"
            fill="#2D2D2D" />
    </g>
    <path
        d="M452.872 24.3706C480.417 24.3706 507.538 31.1639 531.831 44.1488C556.124 57.1337 576.839 75.9093 592.143 98.8126C607.446 121.716 616.865 148.04 619.565 175.453C622.265 202.866 618.163 230.521 607.621 255.97C597.08 281.419 580.425 303.875 559.132 321.35C537.839 338.825 512.565 350.778 485.549 356.152C458.533 361.526 430.608 360.154 404.249 352.158C377.889 344.162 353.909 329.789 334.431 310.311L371.046 273.696C384.502 287.153 401.069 297.083 419.28 302.607C437.491 308.131 456.783 309.079 475.447 305.366C494.112 301.654 511.573 293.395 526.283 281.323C540.994 269.25 552.5 253.736 559.782 236.154C567.065 218.573 569.899 199.467 568.034 180.528C566.168 161.59 559.661 143.403 549.089 127.58C538.516 111.757 524.204 98.7861 507.421 89.8154C490.638 80.8446 471.902 76.1514 452.872 76.1514L452.872 24.3706Z"
        fill="#FFF622" />
    <path
        d="M286.186 211.634C284.053 193.096 285.033 174.331 289.086 156.116L339.631 167.362C336.831 179.946 336.154 192.909 337.627 205.716L286.186 211.634Z"
        fill="#B3610E" />
    <circle cx="367" cy="28" r="7" fill="#FFBE04" />
    <path d="M368.5 27.5H224" stroke="#FFBE04" />
    <circle cx="281" cy="111" r="7" fill="#E99138" />
    <path d="M281 111H225.5" stroke="#E99138" />
    <circle cx="261" cy="199" r="7" fill="#B3610E" />
    <circle cx="281" cy="283" r="7" fill="#9C000B" />
    <path d="M281 283.5H228" stroke="#9C000B" />
    <circle cx="638" cy="246" r="7" fill="#FFF622" />
    <path d="M637.5 246.5H710.5" stroke="#FFF622" />
    <path d="M261 198.5L225.5 198.5" stroke="#B3610E" />
    <path
        d="M176.118 102.545V120H172.428V106.048H172.325L168.328 108.554V105.281L172.649 102.545H176.118ZM187.11 120.384C185.644 120.378 184.383 120.017 183.326 119.301C182.275 118.585 181.465 117.548 180.897 116.19C180.335 114.832 180.056 113.199 180.062 111.29C180.062 109.386 180.343 107.764 180.906 106.423C181.474 105.082 182.283 104.062 183.335 103.364C184.391 102.659 185.65 102.307 187.11 102.307C188.57 102.307 189.826 102.659 190.877 103.364C191.934 104.068 192.746 105.091 193.315 106.432C193.883 107.767 194.164 109.386 194.158 111.29C194.158 113.205 193.874 114.841 193.306 116.199C192.744 117.557 191.937 118.594 190.886 119.31C189.835 120.026 188.576 120.384 187.11 120.384ZM187.11 117.324C188.11 117.324 188.908 116.821 189.505 115.815C190.102 114.81 190.397 113.301 190.391 111.29C190.391 109.966 190.255 108.864 189.982 107.983C189.715 107.102 189.335 106.44 188.84 105.997C188.352 105.554 187.775 105.332 187.11 105.332C186.116 105.332 185.32 105.83 184.724 106.824C184.127 107.818 183.826 109.307 183.82 111.29C183.82 112.631 183.954 113.75 184.221 114.648C184.494 115.54 184.877 116.21 185.371 116.659C185.866 117.102 186.445 117.324 187.11 117.324ZM206.344 116.727V115.807C206.344 115.108 206.491 114.466 206.787 113.881C207.088 113.29 207.523 112.818 208.091 112.466C208.665 112.108 209.364 111.929 210.188 111.929C211.023 111.929 211.724 112.105 212.293 112.457C212.866 112.81 213.298 113.281 213.588 113.872C213.884 114.457 214.031 115.102 214.031 115.807V116.727C214.031 117.426 213.884 118.071 213.588 118.662C213.293 119.247 212.858 119.716 212.284 120.068C211.71 120.426 211.011 120.605 210.188 120.605C209.352 120.605 208.651 120.426 208.082 120.068C207.514 119.716 207.082 119.247 206.787 118.662C206.491 118.071 206.344 117.426 206.344 116.727ZM208.824 115.807V116.727C208.824 117.131 208.92 117.511 209.114 117.869C209.313 118.227 209.67 118.406 210.188 118.406C210.705 118.406 211.057 118.23 211.244 117.878C211.438 117.526 211.534 117.142 211.534 116.727V115.807C211.534 115.392 211.443 115.006 211.261 114.648C211.08 114.29 210.722 114.111 210.188 114.111C209.676 114.111 209.321 114.29 209.122 114.648C208.923 115.006 208.824 115.392 208.824 115.807ZM197.386 106.739V105.818C197.386 105.114 197.537 104.469 197.838 103.884C198.139 103.293 198.574 102.821 199.142 102.469C199.716 102.116 200.409 101.94 201.222 101.94C202.063 101.94 202.767 102.116 203.335 102.469C203.903 102.821 204.335 103.293 204.631 103.884C204.926 104.469 205.074 105.114 205.074 105.818V106.739C205.074 107.443 204.923 108.088 204.622 108.673C204.327 109.259 203.892 109.727 203.318 110.08C202.75 110.426 202.051 110.599 201.222 110.599C200.392 110.599 199.69 110.423 199.116 110.071C198.548 109.713 198.116 109.244 197.821 108.665C197.531 108.08 197.386 107.437 197.386 106.739ZM199.884 105.818V106.739C199.884 107.153 199.98 107.537 200.173 107.889C200.372 108.241 200.722 108.418 201.222 108.418C201.744 108.418 202.099 108.241 202.287 107.889C202.48 107.537 202.577 107.153 202.577 106.739V105.818C202.577 105.403 202.486 105.017 202.304 104.659C202.122 104.301 201.761 104.122 201.222 104.122C200.716 104.122 200.366 104.304 200.173 104.668C199.98 105.031 199.884 105.415 199.884 105.818ZM198.511 120L210.511 102.545H212.744L200.744 120H198.511Z"
        fill="#E99138" />
    <path
        d="M89.3622 148V136.364H96.3849V137.614H90.7713V141.545H96.0213V142.795H90.7713V146.75H96.4759V148H89.3622ZM99.7429 139.273L101.834 142.841L103.925 139.273H105.47L102.652 143.636L105.47 148H103.925L101.834 144.614L99.7429 148H98.1974L100.97 143.636L98.1974 139.273H99.7429ZM110.57 148.182C109.751 148.182 109.047 147.989 108.456 147.602C107.865 147.216 107.411 146.684 107.092 146.006C106.774 145.328 106.615 144.553 106.615 143.682C106.615 142.795 106.778 142.013 107.104 141.335C107.433 140.653 107.892 140.121 108.479 139.739C109.07 139.352 109.759 139.159 110.547 139.159C111.161 139.159 111.714 139.273 112.206 139.5C112.698 139.727 113.102 140.045 113.416 140.455C113.731 140.864 113.926 141.341 114.001 141.886H112.661C112.558 141.489 112.331 141.136 111.979 140.83C111.63 140.519 111.161 140.364 110.57 140.364C110.047 140.364 109.589 140.5 109.195 140.773C108.804 141.042 108.5 141.422 108.28 141.915C108.064 142.403 107.956 142.977 107.956 143.636C107.956 144.311 108.062 144.898 108.274 145.398C108.49 145.898 108.793 146.286 109.183 146.562C109.577 146.839 110.039 146.977 110.57 146.977C110.918 146.977 111.234 146.917 111.518 146.795C111.803 146.674 112.043 146.5 112.24 146.273C112.437 146.045 112.577 145.773 112.661 145.455H114.001C113.926 145.97 113.738 146.434 113.439 146.847C113.143 147.256 112.751 147.581 112.263 147.824C111.778 148.062 111.214 148.182 110.57 148.182ZM117.303 142.75V148H115.962V136.364H117.303V140.636H117.416C117.621 140.186 117.928 139.828 118.337 139.562C118.75 139.294 119.299 139.159 119.984 139.159C120.579 139.159 121.1 139.278 121.547 139.517C121.994 139.752 122.34 140.114 122.587 140.602C122.837 141.087 122.962 141.705 122.962 142.455V148H121.621V142.545C121.621 141.852 121.441 141.316 121.081 140.938C120.725 140.555 120.231 140.364 119.598 140.364C119.159 140.364 118.765 140.456 118.416 140.642C118.071 140.828 117.799 141.098 117.598 141.455C117.401 141.811 117.303 142.242 117.303 142.75ZM127.983 148.205C127.43 148.205 126.928 148.1 126.477 147.892C126.027 147.68 125.669 147.375 125.403 146.977C125.138 146.576 125.006 146.091 125.006 145.523C125.006 145.023 125.104 144.617 125.301 144.307C125.498 143.992 125.761 143.746 126.091 143.568C126.42 143.39 126.784 143.258 127.182 143.17C127.583 143.08 127.987 143.008 128.392 142.955C128.922 142.886 129.352 142.835 129.682 142.801C130.015 142.763 130.258 142.701 130.409 142.614C130.564 142.527 130.642 142.375 130.642 142.159V142.114C130.642 141.553 130.489 141.117 130.182 140.807C129.879 140.496 129.419 140.341 128.801 140.341C128.161 140.341 127.659 140.481 127.295 140.761C126.932 141.042 126.676 141.341 126.528 141.659L125.256 141.205C125.483 140.674 125.786 140.261 126.165 139.966C126.547 139.667 126.964 139.458 127.415 139.341C127.869 139.22 128.316 139.159 128.756 139.159C129.036 139.159 129.358 139.193 129.722 139.261C130.089 139.326 130.443 139.46 130.784 139.665C131.129 139.869 131.415 140.178 131.642 140.591C131.869 141.004 131.983 141.557 131.983 142.25V148H130.642V146.818H130.574C130.483 147.008 130.331 147.21 130.119 147.426C129.907 147.642 129.625 147.826 129.273 147.977C128.92 148.129 128.491 148.205 127.983 148.205ZM128.188 147C128.718 147 129.165 146.896 129.528 146.688C129.896 146.479 130.172 146.21 130.358 145.881C130.547 145.551 130.642 145.205 130.642 144.841V143.614C130.585 143.682 130.46 143.744 130.267 143.801C130.078 143.854 129.858 143.902 129.608 143.943C129.362 143.981 129.121 144.015 128.886 144.045C128.655 144.072 128.468 144.095 128.324 144.114C127.975 144.159 127.65 144.233 127.347 144.335C127.047 144.434 126.805 144.583 126.619 144.784C126.438 144.981 126.347 145.25 126.347 145.591C126.347 146.057 126.519 146.409 126.864 146.648C127.212 146.883 127.653 147 128.188 147ZM135.771 142.75V148H134.43V139.273H135.726V140.636H135.839C136.044 140.193 136.355 139.837 136.771 139.568C137.188 139.295 137.726 139.159 138.385 139.159C138.976 139.159 139.493 139.28 139.936 139.523C140.379 139.761 140.724 140.125 140.97 140.614C141.216 141.098 141.339 141.712 141.339 142.455V148H139.999V142.545C139.999 141.86 139.821 141.326 139.464 140.943C139.108 140.557 138.62 140.364 137.999 140.364C137.571 140.364 137.188 140.456 136.851 140.642C136.518 140.828 136.254 141.098 136.061 141.455C135.868 141.811 135.771 142.242 135.771 142.75ZM147.312 151.455C146.665 151.455 146.108 151.371 145.642 151.205C145.176 151.042 144.788 150.826 144.477 150.557C144.17 150.292 143.926 150.008 143.744 149.705L144.812 148.955C144.934 149.114 145.087 149.295 145.273 149.5C145.458 149.708 145.712 149.888 146.034 150.04C146.36 150.195 146.786 150.273 147.312 150.273C148.017 150.273 148.598 150.102 149.057 149.761C149.515 149.42 149.744 148.886 149.744 148.159V146.386H149.631C149.532 146.545 149.392 146.742 149.21 146.977C149.032 147.208 148.775 147.415 148.438 147.597C148.104 147.775 147.653 147.864 147.085 147.864C146.381 147.864 145.748 147.697 145.188 147.364C144.631 147.03 144.189 146.545 143.864 145.909C143.542 145.273 143.381 144.5 143.381 143.591C143.381 142.697 143.538 141.919 143.852 141.256C144.167 140.589 144.604 140.074 145.165 139.71C145.725 139.343 146.373 139.159 147.108 139.159C147.676 139.159 148.127 139.254 148.46 139.443C148.797 139.629 149.055 139.841 149.233 140.08C149.415 140.314 149.555 140.508 149.653 140.659H149.79V139.273H151.085V148.25C151.085 149 150.915 149.61 150.574 150.08C150.237 150.553 149.782 150.9 149.21 151.119C148.642 151.343 148.009 151.455 147.312 151.455ZM147.267 146.659C147.805 146.659 148.259 146.536 148.631 146.29C149.002 146.044 149.284 145.689 149.477 145.227C149.67 144.765 149.767 144.212 149.767 143.568C149.767 142.939 149.672 142.384 149.483 141.903C149.294 141.422 149.013 141.045 148.642 140.773C148.271 140.5 147.813 140.364 147.267 140.364C146.699 140.364 146.225 140.508 145.847 140.795C145.472 141.083 145.189 141.47 145 141.955C144.814 142.439 144.722 142.977 144.722 143.568C144.722 144.174 144.816 144.71 145.006 145.176C145.199 145.638 145.483 146.002 145.858 146.267C146.237 146.528 146.706 146.659 147.267 146.659ZM157.199 148.182C156.358 148.182 155.633 147.996 155.023 147.625C154.417 147.25 153.949 146.727 153.619 146.057C153.294 145.383 153.131 144.598 153.131 143.705C153.131 142.811 153.294 142.023 153.619 141.341C153.949 140.655 154.407 140.121 154.994 139.739C155.585 139.352 156.275 139.159 157.062 139.159C157.517 139.159 157.966 139.235 158.409 139.386C158.852 139.538 159.256 139.784 159.619 140.125C159.983 140.462 160.273 140.909 160.489 141.466C160.705 142.023 160.812 142.708 160.812 143.523V144.091H154.085V142.932H159.449C159.449 142.439 159.35 142 159.153 141.614C158.96 141.227 158.684 140.922 158.324 140.699C157.968 140.475 157.547 140.364 157.062 140.364C156.528 140.364 156.066 140.496 155.676 140.761C155.29 141.023 154.992 141.364 154.784 141.784C154.576 142.205 154.472 142.655 154.472 143.136V143.909C154.472 144.568 154.585 145.127 154.812 145.585C155.044 146.04 155.364 146.386 155.773 146.625C156.182 146.86 156.657 146.977 157.199 146.977C157.551 146.977 157.869 146.928 158.153 146.83C158.441 146.727 158.689 146.576 158.898 146.375C159.106 146.17 159.267 145.917 159.381 145.614L160.676 145.977C160.54 146.417 160.311 146.803 159.989 147.136C159.667 147.466 159.269 147.723 158.795 147.909C158.322 148.091 157.79 148.182 157.199 148.182ZM167.534 148V136.364H168.943V146.75H174.352V148H167.534ZM176.352 148V139.273H177.693V148H176.352ZM177.034 137.818C176.773 137.818 176.547 137.729 176.358 137.551C176.172 137.373 176.08 137.159 176.08 136.909C176.08 136.659 176.172 136.445 176.358 136.267C176.547 136.089 176.773 136 177.034 136C177.295 136 177.519 136.089 177.705 136.267C177.894 136.445 177.989 136.659 177.989 136.909C177.989 137.159 177.894 137.373 177.705 137.551C177.519 137.729 177.295 137.818 177.034 137.818ZM186.331 141.227L185.126 141.568C185.051 141.367 184.939 141.172 184.791 140.983C184.647 140.79 184.45 140.631 184.2 140.506C183.95 140.381 183.63 140.318 183.24 140.318C182.706 140.318 182.261 140.441 181.905 140.688C181.553 140.93 181.376 141.239 181.376 141.614C181.376 141.947 181.498 142.21 181.74 142.403C181.982 142.597 182.361 142.758 182.876 142.886L184.172 143.205C184.952 143.394 185.534 143.684 185.916 144.074C186.299 144.46 186.49 144.958 186.49 145.568C186.49 146.068 186.346 146.515 186.058 146.909C185.774 147.303 185.376 147.614 184.865 147.841C184.354 148.068 183.759 148.182 183.081 148.182C182.191 148.182 181.454 147.989 180.871 147.602C180.287 147.216 179.918 146.652 179.763 145.909L181.036 145.591C181.157 146.061 181.386 146.413 181.723 146.648C182.064 146.883 182.509 147 183.058 147C183.683 147 184.179 146.867 184.547 146.602C184.918 146.333 185.104 146.011 185.104 145.636C185.104 145.333 184.998 145.08 184.786 144.875C184.573 144.667 184.248 144.511 183.808 144.409L182.354 144.068C181.554 143.879 180.967 143.585 180.592 143.188C180.221 142.786 180.036 142.284 180.036 141.682C180.036 141.189 180.174 140.754 180.45 140.375C180.731 139.996 181.111 139.699 181.592 139.483C182.077 139.267 182.626 139.159 183.24 139.159C184.104 139.159 184.782 139.348 185.274 139.727C185.77 140.106 186.123 140.606 186.331 141.227ZM192.304 139.273V140.409H187.781V139.273H192.304ZM189.099 137.182H190.44V145.5C190.44 145.879 190.495 146.163 190.605 146.352C190.719 146.538 190.863 146.663 191.037 146.727C191.215 146.788 191.402 146.818 191.599 146.818C191.747 146.818 191.868 146.811 191.963 146.795C192.058 146.777 192.134 146.761 192.19 146.75L192.463 147.955C192.372 147.989 192.245 148.023 192.082 148.057C191.92 148.095 191.713 148.114 191.463 148.114C191.084 148.114 190.713 148.032 190.349 147.869C189.99 147.706 189.69 147.458 189.452 147.125C189.217 146.792 189.099 146.371 189.099 145.864V137.182ZM194.321 148V139.273H195.662V148H194.321ZM195.003 137.818C194.741 137.818 194.516 137.729 194.327 137.551C194.141 137.373 194.048 137.159 194.048 136.909C194.048 136.659 194.141 136.445 194.327 136.267C194.516 136.089 194.741 136 195.003 136C195.264 136 195.488 136.089 195.673 136.267C195.863 136.445 195.957 136.659 195.957 136.909C195.957 137.159 195.863 137.373 195.673 137.551C195.488 137.729 195.264 137.818 195.003 137.818ZM199.459 142.75V148H198.118V139.273H199.413V140.636H199.527C199.732 140.193 200.042 139.837 200.459 139.568C200.875 139.295 201.413 139.159 202.072 139.159C202.663 139.159 203.18 139.28 203.624 139.523C204.067 139.761 204.411 140.125 204.658 140.614C204.904 141.098 205.027 141.712 205.027 142.455V148H203.686V142.545C203.686 141.86 203.508 141.326 203.152 140.943C202.796 140.557 202.307 140.364 201.686 140.364C201.258 140.364 200.875 140.456 200.538 140.642C200.205 140.828 199.942 141.098 199.749 141.455C199.555 141.811 199.459 142.242 199.459 142.75ZM211 151.455C210.352 151.455 209.795 151.371 209.33 151.205C208.864 151.042 208.475 150.826 208.165 150.557C207.858 150.292 207.614 150.008 207.432 149.705L208.5 148.955C208.621 149.114 208.775 149.295 208.96 149.5C209.146 149.708 209.4 149.888 209.722 150.04C210.047 150.195 210.473 150.273 211 150.273C211.705 150.273 212.286 150.102 212.744 149.761C213.203 149.42 213.432 148.886 213.432 148.159V146.386H213.318C213.22 146.545 213.08 146.742 212.898 146.977C212.72 147.208 212.462 147.415 212.125 147.597C211.792 147.775 211.341 147.864 210.773 147.864C210.068 147.864 209.436 147.697 208.875 147.364C208.318 147.03 207.877 146.545 207.551 145.909C207.229 145.273 207.068 144.5 207.068 143.591C207.068 142.697 207.225 141.919 207.54 141.256C207.854 140.589 208.292 140.074 208.852 139.71C209.413 139.343 210.061 139.159 210.795 139.159C211.364 139.159 211.814 139.254 212.148 139.443C212.485 139.629 212.742 139.841 212.92 140.08C213.102 140.314 213.242 140.508 213.341 140.659H213.477V139.273H214.773V148.25C214.773 149 214.602 149.61 214.261 150.08C213.924 150.553 213.47 150.9 212.898 151.119C212.33 151.343 211.697 151.455 211 151.455ZM210.955 146.659C211.492 146.659 211.947 146.536 212.318 146.29C212.689 146.044 212.972 145.689 213.165 145.227C213.358 144.765 213.455 144.212 213.455 143.568C213.455 142.939 213.36 142.384 213.17 141.903C212.981 141.422 212.701 141.045 212.33 140.773C211.958 140.5 211.5 140.364 210.955 140.364C210.386 140.364 209.913 140.508 209.534 140.795C209.159 141.083 208.877 141.47 208.688 141.955C208.502 142.439 208.409 142.977 208.409 143.568C208.409 144.174 208.504 144.71 208.693 145.176C208.886 145.638 209.17 146.002 209.545 146.267C209.924 146.528 210.394 146.659 210.955 146.659Z"
        fill="white" />
    <path
        d="M187.434 206.239C186.121 206.239 184.954 206.026 183.931 205.599C182.914 205.168 182.116 204.58 181.536 203.835C180.957 203.091 180.667 202.247 180.667 201.304C180.667 200.577 180.832 199.909 181.161 199.301C181.496 198.688 181.951 198.179 182.525 197.776C183.099 197.366 183.741 197.105 184.451 196.991V196.872C183.519 196.685 182.763 196.233 182.184 195.517C181.604 194.795 181.315 193.957 181.315 193.003C181.315 192.099 181.579 191.295 182.107 190.591C182.636 189.881 183.36 189.324 184.281 188.92C185.207 188.511 186.258 188.307 187.434 188.307C188.61 188.307 189.658 188.511 190.579 188.92C191.505 189.33 192.232 189.889 192.761 190.599C193.289 191.304 193.556 192.105 193.562 193.003C193.556 193.963 193.261 194.801 192.675 195.517C192.09 196.233 191.34 196.685 190.425 196.872V196.991C191.124 197.105 191.758 197.366 192.326 197.776C192.9 198.179 193.354 198.688 193.69 199.301C194.031 199.909 194.204 200.577 194.21 201.304C194.204 202.247 193.911 203.091 193.332 203.835C192.752 204.58 191.951 205.168 190.928 205.599C189.911 206.026 188.746 206.239 187.434 206.239ZM187.434 203.528C188.019 203.528 188.531 203.423 188.968 203.213C189.406 202.997 189.746 202.702 189.991 202.327C190.241 201.946 190.366 201.509 190.366 201.014C190.366 200.509 190.238 200.062 189.982 199.676C189.727 199.284 189.38 198.977 188.942 198.756C188.505 198.528 188.002 198.415 187.434 198.415C186.871 198.415 186.369 198.528 185.925 198.756C185.482 198.977 185.133 199.284 184.877 199.676C184.627 200.062 184.502 200.509 184.502 201.014C184.502 201.509 184.624 201.946 184.869 202.327C185.113 202.702 185.457 202.997 185.9 203.213C186.343 203.423 186.854 203.528 187.434 203.528ZM187.434 195.73C187.923 195.73 188.357 195.631 188.738 195.432C189.119 195.233 189.417 194.957 189.633 194.605C189.849 194.253 189.957 193.847 189.957 193.386C189.957 192.932 189.849 192.534 189.633 192.193C189.417 191.847 189.121 191.577 188.746 191.384C188.371 191.185 187.934 191.085 187.434 191.085C186.94 191.085 186.502 191.185 186.121 191.384C185.741 191.577 185.442 191.847 185.227 192.193C185.016 192.534 184.911 192.932 184.911 193.386C184.911 193.847 185.019 194.253 185.235 194.605C185.451 194.957 185.749 195.233 186.13 195.432C186.511 195.631 186.945 195.73 187.434 195.73ZM206.344 202.727V201.807C206.344 201.108 206.491 200.466 206.787 199.881C207.088 199.29 207.523 198.818 208.091 198.466C208.665 198.108 209.364 197.929 210.188 197.929C211.023 197.929 211.724 198.105 212.293 198.457C212.866 198.81 213.298 199.281 213.588 199.872C213.884 200.457 214.031 201.102 214.031 201.807V202.727C214.031 203.426 213.884 204.071 213.588 204.662C213.293 205.247 212.858 205.716 212.284 206.068C211.71 206.426 211.011 206.605 210.188 206.605C209.352 206.605 208.651 206.426 208.082 206.068C207.514 205.716 207.082 205.247 206.787 204.662C206.491 204.071 206.344 203.426 206.344 202.727ZM208.824 201.807V202.727C208.824 203.131 208.92 203.511 209.114 203.869C209.313 204.227 209.67 204.406 210.188 204.406C210.705 204.406 211.057 204.23 211.244 203.878C211.438 203.526 211.534 203.142 211.534 202.727V201.807C211.534 201.392 211.443 201.006 211.261 200.648C211.08 200.29 210.722 200.111 210.188 200.111C209.676 200.111 209.321 200.29 209.122 200.648C208.923 201.006 208.824 201.392 208.824 201.807ZM197.386 192.739V191.818C197.386 191.114 197.537 190.469 197.838 189.884C198.139 189.293 198.574 188.821 199.142 188.469C199.716 188.116 200.409 187.94 201.222 187.94C202.063 187.94 202.767 188.116 203.335 188.469C203.903 188.821 204.335 189.293 204.631 189.884C204.926 190.469 205.074 191.114 205.074 191.818V192.739C205.074 193.443 204.923 194.088 204.622 194.673C204.327 195.259 203.892 195.727 203.318 196.08C202.75 196.426 202.051 196.599 201.222 196.599C200.392 196.599 199.69 196.423 199.116 196.071C198.548 195.713 198.116 195.244 197.821 194.665C197.531 194.08 197.386 193.437 197.386 192.739ZM199.884 191.818V192.739C199.884 193.153 199.98 193.537 200.173 193.889C200.372 194.241 200.722 194.418 201.222 194.418C201.744 194.418 202.099 194.241 202.287 193.889C202.48 193.537 202.577 193.153 202.577 192.739V191.818C202.577 191.403 202.486 191.017 202.304 190.659C202.122 190.301 201.761 190.122 201.222 190.122C200.716 190.122 200.366 190.304 200.173 190.668C199.98 191.031 199.884 191.415 199.884 191.818ZM198.511 206L210.511 188.545H212.744L200.744 206H198.511Z"
        fill="#B3610E" />
    <path
        d="M175.538 223.614V222.364H184.266V223.614H180.607V234H179.197V223.614H175.538ZM188.652 234.182C187.811 234.182 187.086 233.996 186.476 233.625C185.87 233.25 185.402 232.727 185.072 232.057C184.747 231.383 184.584 230.598 184.584 229.705C184.584 228.811 184.747 228.023 185.072 227.341C185.402 226.655 185.86 226.121 186.447 225.739C187.038 225.352 187.728 225.159 188.516 225.159C188.97 225.159 189.419 225.235 189.862 225.386C190.305 225.538 190.709 225.784 191.072 226.125C191.436 226.462 191.726 226.909 191.942 227.466C192.158 228.023 192.266 228.708 192.266 229.523V230.091H185.538V228.932H190.902C190.902 228.439 190.804 228 190.607 227.614C190.413 227.227 190.137 226.922 189.777 226.699C189.421 226.475 189 226.364 188.516 226.364C187.982 226.364 187.519 226.496 187.129 226.761C186.743 227.023 186.446 227.364 186.237 227.784C186.029 228.205 185.925 228.655 185.925 229.136V229.909C185.925 230.568 186.038 231.127 186.266 231.585C186.497 232.04 186.817 232.386 187.226 232.625C187.635 232.86 188.11 232.977 188.652 232.977C189.004 232.977 189.322 232.928 189.607 232.83C189.894 232.727 190.143 232.576 190.351 232.375C190.559 232.17 190.72 231.917 190.834 231.614L192.129 231.977C191.993 232.417 191.764 232.803 191.442 233.136C191.12 233.466 190.722 233.723 190.249 233.909C189.775 234.091 189.243 234.182 188.652 234.182ZM196.874 234.205C196.321 234.205 195.819 234.1 195.368 233.892C194.917 233.68 194.559 233.375 194.294 232.977C194.029 232.576 193.896 232.091 193.896 231.523C193.896 231.023 193.995 230.617 194.192 230.307C194.389 229.992 194.652 229.746 194.982 229.568C195.311 229.39 195.675 229.258 196.072 229.17C196.474 229.08 196.877 229.008 197.283 228.955C197.813 228.886 198.243 228.835 198.572 228.801C198.906 228.763 199.148 228.701 199.3 228.614C199.455 228.527 199.533 228.375 199.533 228.159V228.114C199.533 227.553 199.379 227.117 199.072 226.807C198.769 226.496 198.309 226.341 197.692 226.341C197.052 226.341 196.55 226.481 196.186 226.761C195.822 227.042 195.567 227.341 195.419 227.659L194.146 227.205C194.374 226.674 194.677 226.261 195.055 225.966C195.438 225.667 195.855 225.458 196.305 225.341C196.76 225.22 197.207 225.159 197.646 225.159C197.927 225.159 198.249 225.193 198.612 225.261C198.98 225.326 199.334 225.46 199.675 225.665C200.019 225.869 200.305 226.178 200.533 226.591C200.76 227.004 200.874 227.557 200.874 228.25V234H199.533V232.818H199.464C199.374 233.008 199.222 233.21 199.01 233.426C198.798 233.642 198.516 233.826 198.163 233.977C197.811 234.129 197.381 234.205 196.874 234.205ZM197.078 233C197.608 233 198.055 232.896 198.419 232.688C198.786 232.479 199.063 232.21 199.249 231.881C199.438 231.551 199.533 231.205 199.533 230.841V229.614C199.476 229.682 199.351 229.744 199.158 229.801C198.968 229.854 198.749 229.902 198.499 229.943C198.252 229.981 198.012 230.015 197.777 230.045C197.546 230.072 197.358 230.095 197.214 230.114C196.866 230.159 196.54 230.233 196.237 230.335C195.938 230.434 195.696 230.583 195.51 230.784C195.328 230.981 195.237 231.25 195.237 231.591C195.237 232.057 195.41 232.409 195.754 232.648C196.103 232.883 196.544 233 197.078 233ZM203.321 234V225.273H204.616V226.636H204.73C204.912 226.17 205.205 225.809 205.611 225.551C206.016 225.29 206.503 225.159 207.071 225.159C207.647 225.159 208.126 225.29 208.509 225.551C208.895 225.809 209.196 226.17 209.412 226.636H209.503C209.726 226.186 210.062 225.828 210.509 225.562C210.955 225.294 211.491 225.159 212.116 225.159C212.897 225.159 213.535 225.403 214.031 225.892C214.527 226.377 214.776 227.133 214.776 228.159V234H213.435V228.159C213.435 227.515 213.259 227.055 212.906 226.778C212.554 226.502 212.139 226.364 211.662 226.364C211.048 226.364 210.573 226.549 210.236 226.92C209.899 227.288 209.73 227.754 209.73 228.318V234H208.366V228.023C208.366 227.527 208.205 227.127 207.884 226.824C207.562 226.517 207.147 226.364 206.639 226.364C206.291 226.364 205.965 226.456 205.662 226.642C205.363 226.828 205.12 227.085 204.935 227.415C204.753 227.741 204.662 228.117 204.662 228.545V234H203.321Z"
        fill="white" />
    <path
        d="M177.524 21.917V39.3716H173.834V25.4199H173.732L169.734 27.9256V24.6528L174.055 21.917H177.524ZM181.673 39.3716V36.7125L187.886 30.9597C188.414 30.4483 188.857 29.9881 189.215 29.579C189.579 29.1699 189.854 28.7693 190.042 28.3773C190.229 27.9795 190.323 27.5506 190.323 27.0903C190.323 26.579 190.207 26.1386 189.974 25.7693C189.741 25.3943 189.423 25.1074 189.019 24.9085C188.616 24.704 188.158 24.6017 187.647 24.6017C187.113 24.6017 186.647 24.7097 186.249 24.9256C185.852 25.1415 185.545 25.4511 185.329 25.8545C185.113 26.2579 185.005 26.7381 185.005 27.2949H181.502C181.502 26.1528 181.761 25.1614 182.278 24.3204C182.795 23.4795 183.519 22.829 184.451 22.3687C185.383 21.9085 186.457 21.6784 187.673 21.6784C188.923 21.6784 190.011 21.9 190.937 22.3432C191.869 22.7807 192.593 23.3886 193.11 24.167C193.627 24.9454 193.886 25.8375 193.886 26.8432C193.886 27.5023 193.755 28.1528 193.494 28.7949C193.238 29.4369 192.781 30.15 192.121 30.9341C191.462 31.7125 190.533 32.6472 189.335 33.7381L186.786 36.2352V36.3545H194.116V39.3716H181.673ZM206.344 36.0989V35.1784C206.344 34.4795 206.491 33.8375 206.787 33.2523C207.088 32.6614 207.523 32.1898 208.091 31.8375C208.665 31.4795 209.364 31.3006 210.188 31.3006C211.023 31.3006 211.724 31.4767 212.293 31.829C212.866 32.1812 213.298 32.6528 213.588 33.2437C213.884 33.829 214.031 34.4739 214.031 35.1784V36.0989C214.031 36.7977 213.884 37.4426 213.588 38.0335C213.293 38.6187 212.858 39.0875 212.284 39.4398C211.71 39.7977 211.011 39.9767 210.188 39.9767C209.352 39.9767 208.651 39.7977 208.082 39.4398C207.514 39.0875 207.082 38.6187 206.787 38.0335C206.491 37.4426 206.344 36.7977 206.344 36.0989ZM208.824 35.1784V36.0989C208.824 36.5023 208.92 36.8829 209.114 37.2409C209.313 37.5989 209.67 37.7778 210.188 37.7778C210.705 37.7778 211.057 37.6017 211.244 37.2494C211.438 36.8972 211.534 36.5136 211.534 36.0989V35.1784C211.534 34.7636 211.443 34.3773 211.261 34.0193C211.08 33.6614 210.722 33.4824 210.188 33.4824C209.676 33.4824 209.321 33.6614 209.122 34.0193C208.923 34.3773 208.824 34.7636 208.824 35.1784ZM197.386 26.1102V25.1898C197.386 24.4852 197.537 23.8403 197.838 23.2551C198.139 22.6642 198.574 22.1926 199.142 21.8403C199.716 21.4881 200.409 21.3119 201.222 21.3119C202.063 21.3119 202.767 21.4881 203.335 21.8403C203.903 22.1926 204.335 22.6642 204.631 23.2551C204.926 23.8403 205.074 24.4852 205.074 25.1898V26.1102C205.074 26.8148 204.923 27.4596 204.622 28.0449C204.327 28.6301 203.892 29.0989 203.318 29.4511C202.75 29.7977 202.051 29.971 201.222 29.971C200.392 29.971 199.69 29.7949 199.116 29.4426C198.548 29.0846 198.116 28.6159 197.821 28.0364C197.531 27.4511 197.386 26.8091 197.386 26.1102ZM199.884 25.1898V26.1102C199.884 26.525 199.98 26.9085 200.173 27.2608C200.372 27.6131 200.722 27.7892 201.222 27.7892C201.744 27.7892 202.099 27.6131 202.287 27.2608C202.48 26.9085 202.577 26.525 202.577 26.1102V25.1898C202.577 24.775 202.486 24.3886 202.304 24.0307C202.122 23.6727 201.761 23.4937 201.222 23.4937C200.716 23.4937 200.366 23.6756 200.173 24.0392C199.98 24.4028 199.884 24.7864 199.884 25.1898ZM198.511 39.3716L210.511 21.917H212.744L200.744 39.3716H198.511Z"
        fill="#FFBE04" />
    <path
        d="M730.114 254.239C729.216 254.233 728.349 254.082 727.514 253.787C726.685 253.491 725.94 253.011 725.281 252.347C724.622 251.682 724.099 250.801 723.713 249.705C723.332 248.608 723.142 247.261 723.142 245.665C723.148 244.199 723.315 242.889 723.645 241.736C723.98 240.577 724.457 239.594 725.077 238.787C725.702 237.98 726.449 237.366 727.318 236.946C728.188 236.52 729.162 236.307 730.241 236.307C731.406 236.307 732.435 236.534 733.327 236.989C734.219 237.437 734.935 238.048 735.474 238.821C736.02 239.594 736.349 240.46 736.463 241.42H732.824C732.682 240.812 732.384 240.335 731.929 239.989C731.474 239.642 730.912 239.469 730.241 239.469C729.105 239.469 728.241 239.963 727.651 240.952C727.065 241.94 726.767 243.284 726.756 244.983H726.875C727.136 244.466 727.489 244.026 727.932 243.662C728.381 243.293 728.889 243.011 729.457 242.818C730.031 242.619 730.636 242.52 731.273 242.52C732.307 242.52 733.227 242.764 734.034 243.253C734.841 243.736 735.477 244.401 735.943 245.247C736.409 246.094 736.642 247.062 736.642 248.153C736.642 249.335 736.366 250.386 735.815 251.307C735.27 252.227 734.506 252.949 733.523 253.472C732.545 253.989 731.409 254.244 730.114 254.239ZM730.097 251.341C730.665 251.341 731.173 251.205 731.622 250.932C732.071 250.659 732.423 250.29 732.679 249.824C732.935 249.358 733.062 248.835 733.062 248.256C733.062 247.676 732.935 247.156 732.679 246.696C732.429 246.236 732.082 245.869 731.639 245.597C731.196 245.324 730.69 245.188 730.122 245.188C729.696 245.188 729.301 245.267 728.938 245.426C728.58 245.585 728.264 245.807 727.991 246.091C727.724 246.375 727.514 246.705 727.361 247.08C727.207 247.449 727.131 247.844 727.131 248.264C727.131 248.827 727.259 249.341 727.514 249.807C727.776 250.273 728.128 250.645 728.571 250.923C729.02 251.202 729.528 251.341 730.097 251.341ZM746.102 254.384C744.636 254.378 743.375 254.017 742.318 253.301C741.267 252.585 740.457 251.548 739.889 250.19C739.327 248.832 739.048 247.199 739.054 245.29C739.054 243.386 739.335 241.764 739.898 240.423C740.466 239.082 741.276 238.062 742.327 237.364C743.384 236.659 744.642 236.307 746.102 236.307C747.563 236.307 748.818 236.659 749.869 237.364C750.926 238.068 751.739 239.091 752.307 240.432C752.875 241.767 753.156 243.386 753.151 245.29C753.151 247.205 752.866 248.841 752.298 250.199C751.736 251.557 750.929 252.594 749.878 253.31C748.827 254.026 747.568 254.384 746.102 254.384ZM746.102 251.324C747.102 251.324 747.901 250.821 748.497 249.815C749.094 248.81 749.389 247.301 749.384 245.29C749.384 243.966 749.247 242.864 748.974 241.983C748.707 241.102 748.327 240.44 747.832 239.997C747.344 239.554 746.767 239.332 746.102 239.332C745.108 239.332 744.313 239.83 743.716 240.824C743.119 241.818 742.818 243.307 742.812 245.29C742.812 246.631 742.946 247.75 743.213 248.648C743.486 249.54 743.869 250.21 744.364 250.659C744.858 251.102 745.438 251.324 746.102 251.324ZM765.336 250.727V249.807C765.336 249.108 765.484 248.466 765.779 247.881C766.08 247.29 766.515 246.818 767.083 246.466C767.657 246.108 768.356 245.929 769.18 245.929C770.015 245.929 770.717 246.105 771.285 246.457C771.859 246.81 772.29 247.281 772.58 247.872C772.876 248.457 773.023 249.102 773.023 249.807V250.727C773.023 251.426 772.876 252.071 772.58 252.662C772.285 253.247 771.85 253.716 771.276 254.068C770.702 254.426 770.004 254.605 769.18 254.605C768.344 254.605 767.643 254.426 767.075 254.068C766.506 253.716 766.075 253.247 765.779 252.662C765.484 252.071 765.336 251.426 765.336 250.727ZM767.816 249.807V250.727C767.816 251.131 767.913 251.511 768.106 251.869C768.305 252.227 768.663 252.406 769.18 252.406C769.697 252.406 770.049 252.23 770.237 251.878C770.43 251.526 770.526 251.142 770.526 250.727V249.807C770.526 249.392 770.435 249.006 770.254 248.648C770.072 248.29 769.714 248.111 769.18 248.111C768.668 248.111 768.313 248.29 768.114 248.648C767.915 249.006 767.816 249.392 767.816 249.807ZM756.379 240.739V239.818C756.379 239.114 756.529 238.469 756.83 237.884C757.131 237.293 757.566 236.821 758.134 236.469C758.708 236.116 759.401 235.94 760.214 235.94C761.055 235.94 761.759 236.116 762.327 236.469C762.896 236.821 763.327 237.293 763.623 237.884C763.918 238.469 764.066 239.114 764.066 239.818V240.739C764.066 241.443 763.915 242.088 763.614 242.673C763.319 243.259 762.884 243.727 762.31 244.08C761.742 244.426 761.043 244.599 760.214 244.599C759.384 244.599 758.683 244.423 758.109 244.071C757.54 243.713 757.109 243.244 756.813 242.665C756.523 242.08 756.379 241.437 756.379 240.739ZM758.876 239.818V240.739C758.876 241.153 758.972 241.537 759.165 241.889C759.364 242.241 759.714 242.418 760.214 242.418C760.737 242.418 761.092 242.241 761.279 241.889C761.472 241.537 761.569 241.153 761.569 240.739V239.818C761.569 239.403 761.478 239.017 761.296 238.659C761.114 238.301 760.754 238.122 760.214 238.122C759.708 238.122 759.359 238.304 759.165 238.668C758.972 239.031 758.876 239.415 758.876 239.818ZM757.504 254L769.504 236.545H771.737L759.737 254H757.504Z"
        fill="#FFF622" />
    <path
        d="M134.8 67.3716V55.7352H141.822V56.9852H136.209V60.917H141.459V62.167H136.209V66.1216H141.913V67.3716H134.8ZM147.726 67.5534C146.908 67.5534 146.203 67.3602 145.612 66.9739C145.021 66.5875 144.567 66.0553 144.249 65.3773C143.93 64.6992 143.771 63.9246 143.771 63.0534C143.771 62.167 143.934 61.3848 144.26 60.7068C144.589 60.025 145.048 59.4928 145.635 59.1102C146.226 58.7239 146.915 58.5307 147.703 58.5307C148.317 58.5307 148.87 58.6443 149.362 58.8716C149.855 59.0989 150.258 59.417 150.572 59.8261C150.887 60.2352 151.082 60.7125 151.158 61.2579H149.817C149.714 60.8602 149.487 60.5079 149.135 60.2011C148.786 59.8905 148.317 59.7352 147.726 59.7352C147.203 59.7352 146.745 59.8716 146.351 60.1443C145.961 60.4132 145.656 60.7939 145.436 61.2864C145.22 61.775 145.112 62.3489 145.112 63.0079C145.112 63.6822 145.218 64.2693 145.43 64.7693C145.646 65.2693 145.949 65.6576 146.339 65.9341C146.733 66.2106 147.196 66.3489 147.726 66.3489C148.074 66.3489 148.391 66.2882 148.675 66.167C148.959 66.0458 149.199 65.8716 149.396 65.6443C149.593 65.417 149.733 65.1443 149.817 64.8261H151.158C151.082 65.3413 150.894 65.8053 150.595 66.2182C150.3 66.6273 149.908 66.953 149.419 67.1954C148.934 67.4341 148.37 67.5534 147.726 67.5534ZM156.663 67.5534C155.875 67.5534 155.184 67.3659 154.589 66.9909C153.999 66.6159 153.536 66.0913 153.203 65.417C152.874 64.7428 152.709 63.9549 152.709 63.0534C152.709 62.1443 152.874 61.3507 153.203 60.6727C153.536 59.9947 153.999 59.4682 154.589 59.0932C155.184 58.7182 155.875 58.5307 156.663 58.5307C157.451 58.5307 158.141 58.7182 158.732 59.0932C159.326 59.4682 159.788 59.9947 160.118 60.6727C160.451 61.3507 160.618 62.1443 160.618 63.0534C160.618 63.9549 160.451 64.7428 160.118 65.417C159.788 66.0913 159.326 66.6159 158.732 66.9909C158.141 67.3659 157.451 67.5534 156.663 67.5534ZM156.663 66.3489C157.262 66.3489 157.754 66.1954 158.141 65.8886C158.527 65.5818 158.813 65.1784 158.999 64.6784C159.184 64.1784 159.277 63.6367 159.277 63.0534C159.277 62.4701 159.184 61.9265 158.999 61.4227C158.813 60.9189 158.527 60.5117 158.141 60.2011C157.754 59.8905 157.262 59.7352 156.663 59.7352C156.065 59.7352 155.572 59.8905 155.186 60.2011C154.8 60.5117 154.514 60.9189 154.328 61.4227C154.143 61.9265 154.05 62.4701 154.05 63.0534C154.05 63.6367 154.143 64.1784 154.328 64.6784C154.514 65.1784 154.8 65.5818 155.186 65.8886C155.572 66.1954 156.065 66.3489 156.663 66.3489ZM168.847 60.5989L167.642 60.9398C167.566 60.739 167.455 60.5439 167.307 60.3545C167.163 60.1614 166.966 60.0023 166.716 59.8773C166.466 59.7523 166.146 59.6898 165.756 59.6898C165.222 59.6898 164.777 59.8129 164.42 60.0591C164.068 60.3015 163.892 60.6102 163.892 60.9852C163.892 61.3186 164.013 61.5818 164.256 61.775C164.498 61.9682 164.877 62.1292 165.392 62.2579L166.688 62.5761C167.468 62.7655 168.049 63.0553 168.432 63.4454C168.814 63.8318 169.006 64.3299 169.006 64.9398C169.006 65.4398 168.862 65.8867 168.574 66.2807C168.29 66.6746 167.892 66.9852 167.381 67.2125C166.869 67.4398 166.275 67.5534 165.597 67.5534C164.706 67.5534 163.97 67.3602 163.386 66.9739C162.803 66.5875 162.434 66.0231 162.278 65.2807L163.551 64.9625C163.672 65.4322 163.902 65.7845 164.239 66.0193C164.58 66.2542 165.025 66.3716 165.574 66.3716C166.199 66.3716 166.695 66.239 167.062 65.9739C167.434 65.7049 167.619 65.3829 167.619 65.0079C167.619 64.7049 167.513 64.4511 167.301 64.2466C167.089 64.0382 166.763 63.8829 166.324 63.7807L164.869 63.4398C164.07 63.2504 163.483 62.9568 163.108 62.5591C162.737 62.1576 162.551 61.6557 162.551 61.0534C162.551 60.561 162.689 60.1254 162.966 59.7466C163.246 59.3678 163.627 59.0704 164.108 58.8545C164.593 58.6386 165.142 58.5307 165.756 58.5307C166.619 58.5307 167.297 58.7201 167.79 59.0989C168.286 59.4776 168.638 59.9776 168.847 60.5989ZM171.888 70.6443C171.661 70.6443 171.458 70.6254 171.28 70.5875C171.102 70.5534 170.979 70.5193 170.911 70.4852L171.251 69.3034C171.577 69.3867 171.865 69.417 172.115 69.3943C172.365 69.3716 172.587 69.2598 172.78 69.0591C172.977 68.8621 173.157 68.542 173.32 68.0989L173.57 67.417L170.342 58.6443H171.797L174.206 65.5989H174.297L176.706 58.6443H178.161L174.456 68.6443C174.289 69.0951 174.083 69.4682 173.837 69.7636C173.59 70.0629 173.304 70.2845 172.979 70.4284C172.657 70.5723 172.293 70.6443 171.888 70.6443ZM186.112 60.5989L184.908 60.9398C184.832 60.739 184.72 60.5439 184.572 60.3545C184.429 60.1614 184.232 60.0023 183.982 59.8773C183.732 59.7523 183.411 59.6898 183.021 59.6898C182.487 59.6898 182.042 59.8129 181.686 60.0591C181.334 60.3015 181.158 60.6102 181.158 60.9852C181.158 61.3186 181.279 61.5818 181.521 61.775C181.764 61.9682 182.143 62.1292 182.658 62.2579L183.953 62.5761C184.733 62.7655 185.315 63.0553 185.697 63.4454C186.08 63.8318 186.271 64.3299 186.271 64.9398C186.271 65.4398 186.127 65.8867 185.839 66.2807C185.555 66.6746 185.158 66.9852 184.646 67.2125C184.135 67.4398 183.54 67.5534 182.862 67.5534C181.972 67.5534 181.235 67.3602 180.652 66.9739C180.069 66.5875 179.699 66.0231 179.544 65.2807L180.817 64.9625C180.938 65.4322 181.167 65.7845 181.504 66.0193C181.845 66.2542 182.29 66.3716 182.839 66.3716C183.464 66.3716 183.961 66.239 184.328 65.9739C184.699 65.7049 184.885 65.3829 184.885 65.0079C184.885 64.7049 184.779 64.4511 184.567 64.2466C184.355 64.0382 184.029 63.8829 183.589 63.7807L182.135 63.4398C181.336 63.2504 180.749 62.9568 180.374 62.5591C180.002 62.1576 179.817 61.6557 179.817 61.0534C179.817 60.561 179.955 60.1254 180.232 59.7466C180.512 59.3678 180.893 59.0704 181.374 58.8545C181.858 58.6386 182.408 58.5307 183.021 58.5307C183.885 58.5307 184.563 58.7201 185.055 59.0989C185.552 59.4776 185.904 59.9776 186.112 60.5989ZM192.085 58.6443V59.7807H187.562V58.6443H192.085ZM188.881 56.5534H190.222V64.8716C190.222 65.2504 190.277 65.5345 190.386 65.7239C190.5 65.9095 190.644 66.0345 190.818 66.0989C190.996 66.1595 191.184 66.1898 191.381 66.1898C191.528 66.1898 191.65 66.1822 191.744 66.167C191.839 66.1481 191.915 66.1329 191.972 66.1216L192.244 67.3261C192.153 67.3602 192.027 67.3943 191.864 67.4284C191.701 67.4663 191.494 67.4852 191.244 67.4852C190.866 67.4852 190.494 67.4038 190.131 67.2409C189.771 67.078 189.472 66.8299 189.233 66.4966C188.998 66.1632 188.881 65.7428 188.881 65.2352V56.5534ZM197.668 67.5534C196.827 67.5534 196.101 67.3678 195.491 66.9966C194.885 66.6216 194.418 66.0989 194.088 65.4284C193.762 64.7542 193.599 63.9701 193.599 63.0761C193.599 62.1822 193.762 61.3943 194.088 60.7125C194.418 60.0269 194.876 59.4928 195.463 59.1102C196.054 58.7239 196.743 58.5307 197.531 58.5307C197.986 58.5307 198.435 58.6064 198.878 58.7579C199.321 58.9095 199.724 59.1557 200.088 59.4966C200.452 59.8337 200.741 60.2807 200.957 60.8375C201.173 61.3943 201.281 62.0799 201.281 62.8943V63.4625H194.554V62.3034H199.918C199.918 61.811 199.819 61.3716 199.622 60.9852C199.429 60.5989 199.152 60.2939 198.793 60.0704C198.437 59.847 198.016 59.7352 197.531 59.7352C196.997 59.7352 196.535 59.8678 196.145 60.1329C195.759 60.3943 195.461 60.7352 195.253 61.1557C195.045 61.5761 194.94 62.0269 194.94 62.5079V63.2807C194.94 63.9398 195.054 64.4985 195.281 64.9568C195.512 65.4114 195.832 65.7579 196.241 65.9966C196.651 66.2314 197.126 66.3489 197.668 66.3489C198.02 66.3489 198.338 66.2996 198.622 66.2011C198.91 66.0989 199.158 65.9473 199.366 65.7466C199.575 65.542 199.736 65.2882 199.849 64.9852L201.145 65.3489C201.009 65.7882 200.779 66.1746 200.457 66.5079C200.135 66.8375 199.738 67.0951 199.264 67.2807C198.791 67.4625 198.259 67.5534 197.668 67.5534ZM203.321 67.3716V58.6443H204.616V60.0079H204.73C204.912 59.542 205.205 59.1803 205.611 58.9227C206.016 58.6614 206.503 58.5307 207.071 58.5307C207.647 58.5307 208.126 58.6614 208.509 58.9227C208.895 59.1803 209.196 59.542 209.412 60.0079H209.503C209.726 59.5572 210.062 59.1992 210.509 58.9341C210.955 58.6651 211.491 58.5307 212.116 58.5307C212.897 58.5307 213.535 58.775 214.031 59.2636C214.527 59.7485 214.776 60.5042 214.776 61.5307V67.3716H213.435V61.5307C213.435 60.8867 213.259 60.4265 212.906 60.15C212.554 59.8735 212.139 59.7352 211.662 59.7352C211.048 59.7352 210.573 59.9208 210.236 60.292C209.899 60.6595 209.73 61.1254 209.73 61.6898V67.3716H208.366V61.3943C208.366 60.8981 208.205 60.4985 207.884 60.1954C207.562 59.8886 207.147 59.7352 206.639 59.7352C206.291 59.7352 205.965 59.828 205.662 60.0136C205.363 60.1992 205.12 60.4568 204.935 60.7864C204.753 61.1121 204.662 61.489 204.662 61.917V67.3716H203.321Z"
        fill="white" />
    <path
        d="M723.409 282V270.364H727.341C728.254 270.364 729 270.528 729.58 270.858C730.163 271.184 730.595 271.625 730.875 272.182C731.155 272.739 731.295 273.36 731.295 274.045C731.295 274.731 731.155 275.354 730.875 275.915C730.598 276.475 730.17 276.922 729.591 277.256C729.011 277.585 728.269 277.75 727.364 277.75H724.545V276.5H727.318C727.943 276.5 728.445 276.392 728.824 276.176C729.203 275.96 729.477 275.669 729.648 275.301C729.822 274.93 729.909 274.511 729.909 274.045C729.909 273.58 729.822 273.163 729.648 272.795C729.477 272.428 729.201 272.14 728.818 271.932C728.436 271.72 727.928 271.614 727.295 271.614H724.818V282H723.409ZM733.384 282V273.273H734.679V274.591H734.77C734.929 274.159 735.217 273.809 735.634 273.54C736.05 273.271 736.52 273.136 737.043 273.136C737.141 273.136 737.264 273.138 737.412 273.142C737.56 273.146 737.671 273.152 737.747 273.159V274.523C737.702 274.511 737.598 274.494 737.435 274.472C737.276 274.445 737.107 274.432 736.929 274.432C736.505 274.432 736.126 274.521 735.793 274.699C735.463 274.873 735.202 275.116 735.009 275.426C734.819 275.733 734.724 276.083 734.724 276.477V282H733.384ZM742.73 282.182C741.889 282.182 741.164 281.996 740.554 281.625C739.948 281.25 739.48 280.727 739.151 280.057C738.825 279.383 738.662 278.598 738.662 277.705C738.662 276.811 738.825 276.023 739.151 275.341C739.48 274.655 739.938 274.121 740.526 273.739C741.116 273.352 741.806 273.159 742.594 273.159C743.048 273.159 743.497 273.235 743.94 273.386C744.384 273.538 744.787 273.784 745.151 274.125C745.514 274.462 745.804 274.909 746.02 275.466C746.236 276.023 746.344 276.708 746.344 277.523V278.091H739.616V276.932H744.98C744.98 276.439 744.882 276 744.685 275.614C744.491 275.227 744.215 274.922 743.855 274.699C743.499 274.475 743.079 274.364 742.594 274.364C742.06 274.364 741.598 274.496 741.207 274.761C740.821 275.023 740.524 275.364 740.315 275.784C740.107 276.205 740.003 276.655 740.003 277.136V277.909C740.003 278.568 740.116 279.127 740.344 279.585C740.575 280.04 740.895 280.386 741.304 280.625C741.713 280.86 742.188 280.977 742.73 280.977C743.082 280.977 743.401 280.928 743.685 280.83C743.973 280.727 744.221 280.576 744.429 280.375C744.637 280.17 744.798 279.917 744.912 279.614L746.207 279.977C746.071 280.417 745.842 280.803 745.52 281.136C745.198 281.466 744.8 281.723 744.327 281.909C743.853 282.091 743.321 282.182 742.73 282.182ZM754.565 275.227L753.361 275.568C753.285 275.367 753.173 275.172 753.026 274.983C752.882 274.79 752.685 274.631 752.435 274.506C752.185 274.381 751.865 274.318 751.474 274.318C750.94 274.318 750.495 274.441 750.139 274.688C749.787 274.93 749.611 275.239 749.611 275.614C749.611 275.947 749.732 276.21 749.974 276.403C750.217 276.597 750.596 276.758 751.111 276.886L752.406 277.205C753.187 277.394 753.768 277.684 754.151 278.074C754.533 278.46 754.724 278.958 754.724 279.568C754.724 280.068 754.58 280.515 754.293 280.909C754.009 281.303 753.611 281.614 753.099 281.841C752.588 282.068 751.993 282.182 751.315 282.182C750.425 282.182 749.688 281.989 749.105 281.602C748.522 281.216 748.152 280.652 747.997 279.909L749.27 279.591C749.391 280.061 749.62 280.413 749.957 280.648C750.298 280.883 750.743 281 751.293 281C751.918 281 752.414 280.867 752.781 280.602C753.152 280.333 753.338 280.011 753.338 279.636C753.338 279.333 753.232 279.08 753.02 278.875C752.808 278.667 752.482 278.511 752.043 278.409L750.588 278.068C749.789 277.879 749.202 277.585 748.827 277.188C748.455 276.786 748.27 276.284 748.27 275.682C748.27 275.189 748.408 274.754 748.685 274.375C748.965 273.996 749.346 273.699 749.827 273.483C750.312 273.267 750.861 273.159 751.474 273.159C752.338 273.159 753.016 273.348 753.509 273.727C754.005 274.106 754.357 274.606 754.565 275.227ZM759.311 282.205C758.758 282.205 758.256 282.1 757.805 281.892C757.355 281.68 756.997 281.375 756.732 280.977C756.466 280.576 756.334 280.091 756.334 279.523C756.334 279.023 756.432 278.617 756.629 278.307C756.826 277.992 757.089 277.746 757.419 277.568C757.749 277.39 758.112 277.258 758.51 277.17C758.911 277.08 759.315 277.008 759.72 276.955C760.25 276.886 760.68 276.835 761.01 276.801C761.343 276.763 761.586 276.701 761.737 276.614C761.893 276.527 761.97 276.375 761.97 276.159V276.114C761.97 275.553 761.817 275.117 761.51 274.807C761.207 274.496 760.747 274.341 760.129 274.341C759.489 274.341 758.987 274.481 758.624 274.761C758.26 275.042 758.004 275.341 757.857 275.659L756.584 275.205C756.811 274.674 757.114 274.261 757.493 273.966C757.875 273.667 758.292 273.458 758.743 273.341C759.197 273.22 759.644 273.159 760.084 273.159C760.364 273.159 760.686 273.193 761.05 273.261C761.417 273.326 761.771 273.46 762.112 273.665C762.457 273.869 762.743 274.178 762.97 274.591C763.197 275.004 763.311 275.557 763.311 276.25V282H761.97V280.818H761.902C761.811 281.008 761.66 281.21 761.447 281.426C761.235 281.642 760.953 281.826 760.601 281.977C760.249 282.129 759.819 282.205 759.311 282.205ZM759.516 281C760.046 281 760.493 280.896 760.857 280.688C761.224 280.479 761.5 280.21 761.686 279.881C761.875 279.551 761.97 279.205 761.97 278.841V277.614C761.913 277.682 761.788 277.744 761.595 277.801C761.406 277.854 761.186 277.902 760.936 277.943C760.69 277.981 760.449 278.015 760.214 278.045C759.983 278.072 759.796 278.095 759.652 278.114C759.304 278.159 758.978 278.233 758.675 278.335C758.375 278.434 758.133 278.583 757.947 278.784C757.766 278.981 757.675 279.25 757.675 279.591C757.675 280.057 757.847 280.409 758.192 280.648C758.54 280.883 758.982 281 759.516 281ZM767.099 270.364V282H765.759V270.364H767.099ZM773.214 282.182C772.374 282.182 771.648 281.996 771.038 281.625C770.432 281.25 769.964 280.727 769.635 280.057C769.309 279.383 769.146 278.598 769.146 277.705C769.146 276.811 769.309 276.023 769.635 275.341C769.964 274.655 770.423 274.121 771.01 273.739C771.601 273.352 772.29 273.159 773.078 273.159C773.533 273.159 773.982 273.235 774.425 273.386C774.868 273.538 775.271 273.784 775.635 274.125C775.999 274.462 776.288 274.909 776.504 275.466C776.72 276.023 776.828 276.708 776.828 277.523V278.091H770.101V276.932H775.464C775.464 276.439 775.366 276 775.169 275.614C774.976 275.227 774.699 274.922 774.339 274.699C773.983 274.475 773.563 274.364 773.078 274.364C772.544 274.364 772.082 274.496 771.692 274.761C771.305 275.023 771.008 275.364 770.8 275.784C770.591 276.205 770.487 276.655 770.487 277.136V277.909C770.487 278.568 770.601 279.127 770.828 279.585C771.059 280.04 771.379 280.386 771.788 280.625C772.197 280.86 772.673 280.977 773.214 280.977C773.567 280.977 773.885 280.928 774.169 280.83C774.457 280.727 774.705 280.576 774.913 280.375C775.122 280.17 775.283 279.917 775.396 279.614L776.692 279.977C776.555 280.417 776.326 280.803 776.004 281.136C775.682 281.466 775.285 281.723 774.811 281.909C774.338 282.091 773.805 282.182 773.214 282.182Z"
        fill="white" />
    <path
        d="M176.118 274.545V292H172.428V278.048H172.325L168.328 280.554V277.281L172.649 274.545H176.118ZM187.11 292.384C185.644 292.378 184.383 292.017 183.326 291.301C182.275 290.585 181.465 289.548 180.897 288.19C180.335 286.832 180.056 285.199 180.062 283.29C180.062 281.386 180.343 279.764 180.906 278.423C181.474 277.082 182.283 276.062 183.335 275.364C184.391 274.659 185.65 274.307 187.11 274.307C188.57 274.307 189.826 274.659 190.877 275.364C191.934 276.068 192.746 277.091 193.315 278.432C193.883 279.767 194.164 281.386 194.158 283.29C194.158 285.205 193.874 286.841 193.306 288.199C192.744 289.557 191.937 290.594 190.886 291.31C189.835 292.026 188.576 292.384 187.11 292.384ZM187.11 289.324C188.11 289.324 188.908 288.821 189.505 287.815C190.102 286.81 190.397 285.301 190.391 283.29C190.391 281.966 190.255 280.864 189.982 279.983C189.715 279.102 189.335 278.44 188.84 277.997C188.352 277.554 187.775 277.332 187.11 277.332C186.116 277.332 185.32 277.83 184.724 278.824C184.127 279.818 183.826 281.307 183.82 283.29C183.82 284.631 183.954 285.75 184.221 286.648C184.494 287.54 184.877 288.21 185.371 288.659C185.866 289.102 186.445 289.324 187.11 289.324ZM206.344 288.727V287.807C206.344 287.108 206.491 286.466 206.787 285.881C207.088 285.29 207.523 284.818 208.091 284.466C208.665 284.108 209.364 283.929 210.188 283.929C211.023 283.929 211.724 284.105 212.293 284.457C212.866 284.81 213.298 285.281 213.588 285.872C213.884 286.457 214.031 287.102 214.031 287.807V288.727C214.031 289.426 213.884 290.071 213.588 290.662C213.293 291.247 212.858 291.716 212.284 292.068C211.71 292.426 211.011 292.605 210.188 292.605C209.352 292.605 208.651 292.426 208.082 292.068C207.514 291.716 207.082 291.247 206.787 290.662C206.491 290.071 206.344 289.426 206.344 288.727ZM208.824 287.807V288.727C208.824 289.131 208.92 289.511 209.114 289.869C209.313 290.227 209.67 290.406 210.188 290.406C210.705 290.406 211.057 290.23 211.244 289.878C211.438 289.526 211.534 289.142 211.534 288.727V287.807C211.534 287.392 211.443 287.006 211.261 286.648C211.08 286.29 210.722 286.111 210.188 286.111C209.676 286.111 209.321 286.29 209.122 286.648C208.923 287.006 208.824 287.392 208.824 287.807ZM197.386 278.739V277.818C197.386 277.114 197.537 276.469 197.838 275.884C198.139 275.293 198.574 274.821 199.142 274.469C199.716 274.116 200.409 273.94 201.222 273.94C202.063 273.94 202.767 274.116 203.335 274.469C203.903 274.821 204.335 275.293 204.631 275.884C204.926 276.469 205.074 277.114 205.074 277.818V278.739C205.074 279.443 204.923 280.088 204.622 280.673C204.327 281.259 203.892 281.727 203.318 282.08C202.75 282.426 202.051 282.599 201.222 282.599C200.392 282.599 199.69 282.423 199.116 282.071C198.548 281.713 198.116 281.244 197.821 280.665C197.531 280.08 197.386 279.437 197.386 278.739ZM199.884 277.818V278.739C199.884 279.153 199.98 279.537 200.173 279.889C200.372 280.241 200.722 280.418 201.222 280.418C201.744 280.418 202.099 280.241 202.287 279.889C202.48 279.537 202.577 279.153 202.577 278.739V277.818C202.577 277.403 202.486 277.017 202.304 276.659C202.122 276.301 201.761 276.122 201.222 276.122C200.716 276.122 200.366 276.304 200.173 276.668C199.98 277.031 199.884 277.415 199.884 277.818ZM198.511 292L210.511 274.545H212.744L200.744 292H198.511Z"
        fill="#9C000B" />
    <path
        d="M151.956 320V308.364H155.888C156.797 308.364 157.543 308.519 158.126 308.83C158.71 309.136 159.142 309.559 159.422 310.097C159.702 310.634 159.842 311.246 159.842 311.932C159.842 312.617 159.702 313.225 159.422 313.756C159.142 314.286 158.712 314.703 158.132 315.006C157.553 315.305 156.812 315.455 155.911 315.455H152.729V314.182H155.865C156.486 314.182 156.986 314.091 157.365 313.909C157.748 313.727 158.024 313.47 158.195 313.136C158.369 312.799 158.456 312.398 158.456 311.932C158.456 311.466 158.369 311.059 158.195 310.71C158.02 310.362 157.742 310.093 157.359 309.903C156.977 309.71 156.471 309.614 155.842 309.614H153.365V320H151.956ZM157.433 314.773L160.297 320H158.661L155.842 314.773H157.433ZM165.574 320.182C164.733 320.182 164.008 319.996 163.398 319.625C162.792 319.25 162.324 318.727 161.994 318.057C161.669 317.383 161.506 316.598 161.506 315.705C161.506 314.811 161.669 314.023 161.994 313.341C162.324 312.655 162.782 312.121 163.369 311.739C163.96 311.352 164.65 311.159 165.438 311.159C165.892 311.159 166.341 311.235 166.784 311.386C167.227 311.538 167.631 311.784 167.994 312.125C168.358 312.462 168.648 312.909 168.864 313.466C169.08 314.023 169.188 314.708 169.188 315.523V316.091H162.46V314.932H167.824C167.824 314.439 167.725 314 167.528 313.614C167.335 313.227 167.059 312.922 166.699 312.699C166.343 312.475 165.922 312.364 165.438 312.364C164.903 312.364 164.441 312.496 164.051 312.761C163.665 313.023 163.367 313.364 163.159 313.784C162.951 314.205 162.847 314.655 162.847 315.136V315.909C162.847 316.568 162.96 317.127 163.188 317.585C163.419 318.04 163.739 318.386 164.148 318.625C164.557 318.86 165.032 318.977 165.574 318.977C165.926 318.977 166.244 318.928 166.528 318.83C166.816 318.727 167.064 318.576 167.273 318.375C167.481 318.17 167.642 317.917 167.756 317.614L169.051 317.977C168.915 318.417 168.686 318.803 168.364 319.136C168.042 319.466 167.644 319.723 167.17 319.909C166.697 320.091 166.165 320.182 165.574 320.182ZM173.205 320L170.545 311.273H171.955L173.841 317.955H173.932L175.795 311.273H177.227L179.068 317.932H179.159L181.045 311.273H182.455L179.795 320H178.477L176.568 313.295H176.432L174.523 320H173.205ZM186.795 320.205C186.242 320.205 185.741 320.1 185.29 319.892C184.839 319.68 184.481 319.375 184.216 318.977C183.951 318.576 183.818 318.091 183.818 317.523C183.818 317.023 183.917 316.617 184.114 316.307C184.311 315.992 184.574 315.746 184.903 315.568C185.233 315.39 185.597 315.258 185.994 315.17C186.396 315.08 186.799 315.008 187.205 314.955C187.735 314.886 188.165 314.835 188.494 314.801C188.828 314.763 189.07 314.701 189.222 314.614C189.377 314.527 189.455 314.375 189.455 314.159V314.114C189.455 313.553 189.301 313.117 188.994 312.807C188.691 312.496 188.231 312.341 187.614 312.341C186.973 312.341 186.472 312.481 186.108 312.761C185.744 313.042 185.489 313.341 185.341 313.659L184.068 313.205C184.295 312.674 184.598 312.261 184.977 311.966C185.36 311.667 185.777 311.458 186.227 311.341C186.682 311.22 187.129 311.159 187.568 311.159C187.848 311.159 188.17 311.193 188.534 311.261C188.902 311.326 189.256 311.46 189.597 311.665C189.941 311.869 190.227 312.178 190.455 312.591C190.682 313.004 190.795 313.557 190.795 314.25V320H189.455V318.818H189.386C189.295 319.008 189.144 319.21 188.932 319.426C188.72 319.642 188.438 319.826 188.085 319.977C187.733 320.129 187.303 320.205 186.795 320.205ZM187 319C187.53 319 187.977 318.896 188.341 318.688C188.708 318.479 188.985 318.21 189.17 317.881C189.36 317.551 189.455 317.205 189.455 316.841V315.614C189.398 315.682 189.273 315.744 189.08 315.801C188.89 315.854 188.67 315.902 188.42 315.943C188.174 315.981 187.934 316.015 187.699 316.045C187.468 316.072 187.28 316.095 187.136 316.114C186.788 316.159 186.462 316.233 186.159 316.335C185.86 316.434 185.617 316.583 185.432 316.784C185.25 316.981 185.159 317.25 185.159 317.591C185.159 318.057 185.331 318.409 185.676 318.648C186.025 318.883 186.466 319 187 319ZM193.243 320V311.273H194.538V312.591H194.629C194.788 312.159 195.076 311.809 195.493 311.54C195.91 311.271 196.379 311.136 196.902 311.136C197 311.136 197.124 311.138 197.271 311.142C197.419 311.146 197.531 311.152 197.607 311.159V312.523C197.561 312.511 197.457 312.494 197.294 312.472C197.135 312.445 196.966 312.432 196.788 312.432C196.364 312.432 195.985 312.521 195.652 312.699C195.322 312.873 195.061 313.116 194.868 313.426C194.679 313.733 194.584 314.083 194.584 314.477V320H193.243ZM202.226 320.182C201.499 320.182 200.857 319.998 200.3 319.631C199.743 319.259 199.307 318.737 198.993 318.062C198.679 317.384 198.521 316.583 198.521 315.659C198.521 314.742 198.679 313.947 198.993 313.273C199.307 312.598 199.745 312.078 200.305 311.71C200.866 311.343 201.514 311.159 202.249 311.159C202.817 311.159 203.266 311.254 203.595 311.443C203.929 311.629 204.182 311.841 204.357 312.08C204.535 312.314 204.673 312.508 204.771 312.659H204.885V308.364H206.226V320H204.93V318.659H204.771C204.673 318.818 204.533 319.019 204.351 319.261C204.169 319.5 203.91 319.714 203.572 319.903C203.235 320.089 202.786 320.182 202.226 320.182ZM202.408 318.977C202.946 318.977 203.4 318.837 203.771 318.557C204.143 318.273 204.425 317.881 204.618 317.381C204.811 316.877 204.908 316.295 204.908 315.636C204.908 314.985 204.813 314.415 204.624 313.926C204.434 313.434 204.154 313.051 203.783 312.778C203.411 312.502 202.953 312.364 202.408 312.364C201.839 312.364 201.366 312.509 200.987 312.801C200.612 313.089 200.33 313.481 200.141 313.977C199.955 314.47 199.862 315.023 199.862 315.636C199.862 316.258 199.957 316.822 200.146 317.33C200.339 317.833 200.624 318.235 200.999 318.534C201.377 318.83 201.847 318.977 202.408 318.977ZM215.05 313.227L213.845 313.568C213.769 313.367 213.658 313.172 213.51 312.983C213.366 312.79 213.169 312.631 212.919 312.506C212.669 312.381 212.349 312.318 211.959 312.318C211.425 312.318 210.98 312.441 210.624 312.688C210.271 312.93 210.095 313.239 210.095 313.614C210.095 313.947 210.216 314.21 210.459 314.403C210.701 314.597 211.08 314.758 211.595 314.886L212.891 315.205C213.671 315.394 214.252 315.684 214.635 316.074C215.018 316.46 215.209 316.958 215.209 317.568C215.209 318.068 215.065 318.515 214.777 318.909C214.493 319.303 214.095 319.614 213.584 319.841C213.072 320.068 212.478 320.182 211.8 320.182C210.91 320.182 210.173 319.989 209.589 319.602C209.006 319.216 208.637 318.652 208.482 317.909L209.754 317.591C209.875 318.061 210.105 318.413 210.442 318.648C210.783 318.883 211.228 319 211.777 319C212.402 319 212.898 318.867 213.266 318.602C213.637 318.333 213.822 318.011 213.822 317.636C213.822 317.333 213.716 317.08 213.504 316.875C213.292 316.667 212.966 316.511 212.527 316.409L211.072 316.068C210.273 315.879 209.686 315.585 209.311 315.188C208.94 314.786 208.754 314.284 208.754 313.682C208.754 313.189 208.893 312.754 209.169 312.375C209.449 311.996 209.83 311.699 210.311 311.483C210.796 311.267 211.345 311.159 211.959 311.159C212.822 311.159 213.5 311.348 213.993 311.727C214.489 312.106 214.841 312.606 215.05 313.227Z"
        fill="white" />
    <path
        d="M445.712 24.3982C409.125 25.9927 375.506 39.3224 348.592 60.7583L380.183 102.082C398.792 86.998 422.145 77.5699 447.597 76.3679L445.712 24.3982Z"
        fill="#FFBE04" />
    <path
        d="M376.377 105.032C359.195 119.954 347.638 139.134 341.565 161.849L291.295 148.504C300.05 115.647 318.486 86.8341 343.296 65.2151L342.666 65.7861L376.377 105.032Z"
        fill="#E99138" />
    <path
        d="M338 211C341.679 233.458 350.856 252.906 367 270L330.84 304.514C307.473 279.811 292.631 248.993 287.257 216.527L287.412 217.363L338 211Z"
        fill="#9C000B" />
    <defs>
        <filter id="filter0_dddddd_901_2" x="181" y="-0.00634766" width="544" height="564" filterUnits="userSpaceOnUse"
            color-interpolation-filters="sRGB">
            <feFlood flood-opacity="0" result="BackgroundImageFix" />
            <feColorMatrix in="SourceAlpha" type="matrix" values="0 0 0 0 0 0 0 0 0 0 0 0 0 0 0 0 0 0 127 0"
                result="hardAlpha" />
            <feOffset dy="2.76726" />
            <feGaussianBlur stdDeviation="1.1069" />
            <feColorMatrix type="matrix" values="0 0 0 0 0 0 0 0 0 0 0 0 0 0 0 0 0 0 0.0506062 0" />
            <feBlend mode="normal" in2="BackgroundImageFix" result="effect1_dropShadow_901_2" />
            <feColorMatrix in="SourceAlpha" type="matrix" values="0 0 0 0 0 0 0 0 0 0 0 0 0 0 0 0 0 0 127 0"
                result="hardAlpha" />
            <feOffset dy="6.6501" />
            <feGaussianBlur stdDeviation="2.66004" />
            <feColorMatrix type="matrix" values="0 0 0 0 0 0 0 0 0 0 0 0 0 0 0 0 0 0 0.0727007 0" />
            <feBlend mode="normal" in2="effect1_dropShadow_901_2" result="effect2_dropShadow_901_2" />
            <feColorMatrix in="SourceAlpha" type="matrix" values="0 0 0 0 0 0 0 0 0 0 0 0 0 0 0 0 0 0 127 0"
                result="hardAlpha" />
            <feOffset dy="12.5216" />
            <feGaussianBlur stdDeviation="5.00862" />
            <feColorMatrix type="matrix" values="0 0 0 0 0 0 0 0 0 0 0 0 0 0 0 0 0 0 0.09 0" />
            <feBlend mode="normal" in2="effect2_dropShadow_901_2" result="effect3_dropShadow_901_2" />
            <feColorMatrix in="SourceAlpha" type="matrix" values="0 0 0 0 0 0 0 0 0 0 0 0 0 0 0 0 0 0 127 0"
                result="hardAlpha" />
            <feOffset dy="22.3363" />
            <feGaussianBlur stdDeviation="8.93452" />
            <feColorMatrix type="matrix" values="0 0 0 0 0 0 0 0 0 0 0 0 0 0 0 0 0 0 0.107299 0" />
            <feBlend mode="normal" in2="effect3_dropShadow_901_2" result="effect4_dropShadow_901_2" />
            <feColorMatrix in="SourceAlpha" type="matrix" values="0 0 0 0 0 0 0 0 0 0 0 0 0 0 0 0 0 0 127 0"
                result="hardAlpha" />
            <feOffset dy="41.7776" />
            <feGaussianBlur stdDeviation="16.711" />
            <feColorMatrix type="matrix" values="0 0 0 0 0 0 0 0 0 0 0 0 0 0 0 0 0 0 0.129394 0" />
            <feBlend mode="normal" in2="effect4_dropShadow_901_2" result="effect5_dropShadow_901_2" />
            <feColorMatrix in="SourceAlpha" type="matrix" values="0 0 0 0 0 0 0 0 0 0 0 0 0 0 0 0 0 0 127 0"
                result="hardAlpha" />
            <feOffset dy="100" />
            <feGaussianBlur stdDeviation="40" />
            <feColorMatrix type="matrix" values="0 0 0 0 0 0 0 0 0 0 0 0 0 0 0 0 0 0 0.18 0" />
            <feBlend mode="normal" in2="effect5_dropShadow_901_2" result="effect6_dropShadow_901_2" />
            <feBlend mode="normal" in="SourceGraphic" in2="effect6_dropShadow_901_2" result="shape" />
        </filter>
    </defs>
</svg>